<?xml version="1.0" encoding="iso-8859-1"?>
<!-- Generator: Adobe Illustrator 19.0.0, SVG Export Plug-In . SVG Version: 6.00 Build 0)  -->
<svg version="1.1" id="Layer_1" xmlns="http://www.w3.org/2000/svg" xmlns:xlink="http://www.w3.org/1999/xlink" x="0px" y="0px"
	 viewBox="0 0 464 464" style="enable-background:new 0 0 464 464;" xml:space="preserve">
<g transform="translate(0 -1020.36)">
	<g shape-rendering="auto" image-rendering="auto" color-rendering="auto" color-interpolation="sRGB">
		<path style="fill:#354251;" d="M190.14,1060.486c-43.006,0.416-85.843,15.18-120.864,44.275
			c-70.04,58.195-89.546,157.643-46.664,237.967c42.879,80.322,136.411,119.545,223.757,93.768s144.652-109.465,137.024-200.189
			c-0.359-4.404-4.22-7.682-8.625-7.324c-0.042,0.004-0.085,0.008-0.127,0.012l-164.777,13.811l103.236-129.168
			c2.755-3.455,2.186-8.488-1.27-11.242c-0.004-0.004-0.008-0.006-0.013-0.01c-35.576-28.416-78.671-42.313-121.679-41.898H190.14z"
			/>
		<path style="fill:#9DB6CA;" d="M190.265,1076.421c36.576-0.367,72.395,13.338,103.581,35.775l-8.376,10.5
			c-29.448-21.199-64.212-31.33-98.642-30.215c-35.565,1.152-70.72,14.188-99.237,38.744
			c-57.031,49.111-72.188,131.443-36.256,197.566c35.933,66.121,113.341,98.217,185.595,77.113
			c70.322-20.537,117.307-86.186,114.863-158.883l13.534-1.119c2.643,79.725-46.203,152.428-123.458,175.227
			c-80.156,23.656-165.842-12.119-205.192-85.832c-39.351-73.709-21.485-164.846,42.789-218.248
			c32.136-26.703,71.395-40.242,110.8-40.621L190.265,1076.421z"/>
		<path style="fill:#9ACFDF;" d="M187.329,1108.447c30.728-0.977,61.71,7.982,88.108,26.779l-89.671,112.203
			c-2.7,3.498-2.053,8.521,1.446,11.221c1.539,1.188,3.458,1.773,5.399,1.65l143.213-11.938
			c1.857,65.197-40.266,123.732-103.394,142.17c-65.112,19.016-134.647-9.842-167.029-69.43
			c-32.381-59.588-18.795-133.59,32.6-177.85c25.697-22.129,57.336-33.787,89.329-34.809V1108.447z"/>
		<path style="fill:#354251;" d="M386.831,1060.361c-2.365,0-4.573,1.199-6.03,3.061l-115.052,143.947
			c-4.445,5.508-0.059,13.656,6.971,12.996l184.032-16.871c4.355-0.416,7.58-4.27,7.22-8.623
			c-4.808-52.148-30.809-100.131-71.95-132.73c-1.47-1.184-3.302-1.826-5.189-1.777L386.831,1060.361z"/>
		<path style="fill:#9DB6CA;" d="M388.082,1079.076c31.469,27.645,52.814,67.953,58.791,109.297l-16.596,1.504
			c-5.383-37.783-24.024-72.383-52.698-97.58L388.082,1079.076z"/>
		<path style="fill:#9ACFDF;" d="M367.547,1104.949c25.266,22.447,41.8,52.975,46.757,86.395l-124.364,11.311L367.547,1104.949z"/>
		<path style="fill:#354251;" d="M155.993,1132.408c-15.37,0-28,12.633-28,28c0,15.369,12.63,28,28,28s28-12.631,28-28
			C183.992,1145.04,171.362,1132.408,155.993,1132.408z"/>
		<path style="fill:#FFFFFF;" d="M155.993,1148.408c6.725,0,12,5.281,12,12c0,6.721-5.275,12-12,12s-12-5.279-12-12
			C143.993,1153.689,149.267,1148.408,155.993,1148.408z"/>
		<path style="fill:#354251;" d="M127.993,1276.376c-17.58,0-32.031,14.422-32.031,32c0.001,17.578,14.453,32,32.031,32
			c17.578,0,31.999-14.424,32-32C159.993,1290.798,145.572,1276.376,127.993,1276.376z"/>
		<path style="fill:#FFFFFF;" d="M127.993,1292.376c8.935,0,16,7.072,16,16c-0.001,8.928-7.065,16-16,16
			c-8.935,0-16.031-7.072-16.031-16C111.961,1299.449,119.058,1292.376,127.993,1292.376z"/>
		<path style="fill:#354251;" d="M231.993,1324.376c-13.161,0-24.001,10.838-24,24c0.001,13.16,10.84,24,24,24
			c13.16,0,23.999-10.84,24-24C255.993,1335.216,245.153,1324.376,231.993,1324.376z"/>
		<path style="fill:#FFFFFF;" d="M231.993,1340.376c4.516,0,8,3.49,8,8c0,4.51-3.484,8-8,8c-4.516,0-8-3.49-8-8
			C223.993,1343.867,227.477,1340.376,231.993,1340.376z"/>
		<path style="fill:#354251;" d="M95.961,1196.376c-13.16,0-24.001,10.84-24,24c0.001,13.16,10.84,24,24,24
			c13.16,0,24.03-10.84,24.031-24C119.993,1207.214,109.122,1196.376,95.961,1196.376z"/>
		<path style="fill:#FFFFFF;" d="M95.961,1212.376c4.516,0,8.031,3.49,8.031,8c0,4.51-3.515,8-8.031,8c-4.516,0-8-3.49-8-8
			C87.961,1215.867,91.445,1212.376,95.961,1212.376z"/>
	</g>
	<g>
		<path style="fill:#354251;" d="M183.991,1212.39c0.001,4.418-3.581,8-8,8c0,0-0.001,0-0.001,0c-4.419,0-8.001-3.582-8.001-7.998
			c0-0.002,0-0.002,0-0.002c0-4.418,3.583-7.998,8.001-7.998S183.99,1207.972,183.991,1212.39z"/>
		<path style="fill:#354251;" d="M304.012,1292.376c0,4.418-3.583,7.998-8.001,7.998c-4.419,0-8.001-3.58-8.002-7.998
			c0-4.418,3.583-7.998,8.002-7.998C300.429,1284.378,304.011,1287.958,304.012,1292.376z"/>
		<path style="fill:#354251;" d="M175.989,1356.369c0,4.418-3.583,7.998-8.001,7.998c-4.419,0-8.001-3.58-8.002-7.998
			c0-4.418,3.583-7.998,8.002-7.998C172.407,1348.37,175.989,1351.951,175.989,1356.369z"/>
		<path style="fill:#354251;" d="M79.973,1276.378c0,4.418-3.583,7.998-8.001,7.998s-8.001-3.58-8.001-7.998
			c0-4.418,3.583-7.998,8.001-7.998S79.972,1271.96,79.973,1276.378z"/>
		<path style="fill:#354251;" d="M223.996,1132.4c0,4.418-3.583,7.998-8.001,7.998s-8.001-3.58-8.001-7.998
			c0-4.418,3.583-7.998,8.001-7.998S223.996,1127.982,223.996,1132.4z"/>
		<path style="fill:#354251;" d="M400.028,1172.392c0.001,4.418-3.581,8-8,8c0,0-0.001,0-0.001,0c-4.419,0-8.001-3.582-8.001-7.998
			c0-0.002,0-0.002,0-0.002c0-4.418,3.583-7.998,8.001-7.998S400.027,1167.974,400.028,1172.392z"/>
		
			<path shape-rendering="auto" image-rendering="auto" color-rendering="auto" color-interpolation="sRGB" style="fill:#354251;" d="
			M352.024,1116.408c-13.16,0-23.999,10.842-24,24c-0.001,13.162,10.839,24,24,24s24.001-10.838,24-24
			C376.023,1127.249,365.184,1116.408,352.024,1116.408z"/>
	</g>
	<path shape-rendering="auto" image-rendering="auto" color-rendering="auto" color-interpolation="sRGB" style="fill:#FFFFFF;" d="
		M352.024,1132.408c4.516,0,8,3.49,8,8c0,4.51-3.484,8-8,8s-8-3.49-8-8C344.024,1135.898,347.508,1132.408,352.024,1132.408z"/>
	<path style="fill:#354251;" d="M344.017,1180.394c0,4.418-3.583,7.998-8.001,7.998s-8.001-3.58-8.001-7.998
		c0-4.418,3.583-7.998,8.001-7.998S344.016,1175.976,344.017,1180.394z"/>
</g>
<g>
</g>
<g>
</g>
<g>
</g>
<g>
</g>
<g>
</g>
<g>
</g>
<g>
</g>
<g>
</g>
<g>
</g>
<g>
</g>
<g>
</g>
<g>
</g>
<g>
</g>
<g>
</g>
<g>
</g>
</svg>
