<?xml version="1.0" standalone="no"?>
<!DOCTYPE svg PUBLIC "-//W3C//DTD SVG 20010904//EN"
 "http://www.w3.org/TR/2001/REC-SVG-20010904/DTD/svg10.dtd">
<svg version="1.0" xmlns="http://www.w3.org/2000/svg"
 width="600.000000pt" height="600.000000pt" viewBox="0 0 600.000000 600.000000"
 preserveAspectRatio="xMidYMid meet">
<metadata>
Created by potrace 1.11, written by Peter Selinger 2001-2013
</metadata>
<g transform="translate(0.000000,600.000000) scale(0.100000,-0.100000)"
fill="#000000" stroke="none">
<path d="M2906 5362 c-2 -1 -45 -5 -97 -7 -142 -7 -235 -15 -351 -30 -21 -3
-57 -7 -80 -10 -24 -3 -65 -10 -93 -15 -27 -5 -70 -12 -94 -15 -23 -4 -54 -11
-68 -16 -14 -5 -28 -7 -30 -5 -3 3 -16 0 -30 -5 -14 -5 -42 -12 -62 -15 -20
-3 -43 -10 -51 -14 -8 -4 -17 -8 -20 -8 -25 0 -198 -54 -315 -100 -97 -37
-288 -129 -345 -165 -19 -12 -50 -31 -68 -42 -38 -22 -191 -135 -237 -175 -43
-36 -236 -229 -271 -270 -157 -185 -305 -434 -377 -640 -23 -65 -64 -208 -73
-255 -4 -22 -8 -47 -10 -55 -30 -157 -35 -469 -10 -610 3 -14 7 -41 10 -60 26
-173 99 -417 172 -577 8 -17 14 -34 14 -38 0 -9 103 -214 129 -255 12 -19 24
-43 27 -52 4 -10 9 -18 13 -18 4 0 15 -15 26 -33 10 -17 28 -44 39 -59 12 -14
32 -41 46 -59 78 -104 276 -283 412 -372 32 -20 58 -41 58 -46 0 -4 20 -19 44
-32 40 -21 43 -25 31 -43 -26 -41 -36 -155 -20 -207 8 -23 143 -110 268 -172
190 -94 459 -178 687 -213 19 -3 41 -7 47 -9 7 -2 43 -7 80 -11 38 -3 70 -7
73 -9 3 -2 50 -7 105 -11 183 -15 603 -9 750 10 17 2 55 7 85 11 48 5 187 32
269 50 42 10 60 25 82 66 33 65 39 163 15 234 -2 6 23 10 63 11 118 0 328 42
424 83 26 11 48 20 50 20 4 -1 55 19 136 53 42 18 79 31 84 30 4 -1 7 3 7 8 0
6 5 10 11 10 34 0 384 195 498 276 197 142 360 292 481 443 19 24 41 49 48 56
6 8 12 18 12 23 0 6 3 12 8 14 11 5 52 66 52 78 0 5 4 10 9 10 5 0 43 69 85
153 105 213 156 385 183 612 14 114 6 411 -13 530 -15 93 -28 159 -45 230 -11
44 -22 87 -24 95 -15 64 -77 225 -121 319 -49 102 -118 227 -133 241 -4 3 -18
24 -33 46 -81 125 -319 376 -430 453 -13 8 -31 23 -41 32 -25 23 -164 122
-207 148 -55 33 -228 116 -310 149 -75 30 -274 96 -321 106 -13 3 -60 15 -104
26 -93 23 -103 26 -210 46 -177 34 -245 42 -410 50 -127 6 -525 11 -529 6z
m78 -2227 c9 -33 19 -68 21 -79 2 -10 20 -71 40 -135 20 -64 42 -136 50 -161
73 -242 99 -325 116 -385 12 -38 27 -86 34 -105 7 -19 13 -38 14 -42 1 -4 3
-13 6 -20 2 -7 15 -51 29 -98 32 -112 96 -321 103 -340 3 -8 8 -24 10 -35 1
-11 7 -29 12 -40 10 -22 74 -223 77 -242 1 -7 10 -35 19 -63 9 -28 15 -54 12
-56 -3 -3 -14 23 -25 58 -11 35 -48 142 -82 238 -34 96 -63 182 -65 190 -2 8
-18 53 -35 100 -17 46 -46 130 -65 185 -19 55 -66 192 -106 305 -39 113 -79
230 -89 260 -10 30 -27 79 -39 108 -11 28 -18 52 -15 52 4 0 2 6 -3 13 -5 6
-25 58 -44 115 -18 56 -37 102 -41 102 -3 0 -41 -42 -83 -92 -42 -51 -87 -104
-99 -118 -12 -14 -51 -61 -86 -105 -36 -44 -68 -82 -71 -85 -3 -3 -27 -31 -53
-63 -63 -78 -88 -107 -108 -129 -10 -10 -18 -22 -18 -27 0 -5 -3 -11 -7 -13
-7 -3 -77 -84 -123 -142 -45 -57 -56 -63 -19 -11 61 85 103 139 112 143 4 2 7
8 7 13 0 5 6 17 14 26 30 37 108 140 160 213 44 62 183 247 213 285 4 6 42 55
83 110 97 129 112 147 120 138 4 -5 15 -35 24 -68z m566 -1855 c5 -19 6 -29 1
-24 -10 10 -26 72 -17 63 4 -4 11 -21 16 -39z"/>
</g>
</svg>
